HIERARCHY
ROOT hip
{
	OFFSET 0.000000 0.000000 0.000000 
	CHANNELS 6 Xposition Yposition Zposition Zrotation Yrotation Xrotation
	JOINT abdomen
	{
		OFFSET 0.000000 20.688101 -0.731520 
		CHANNELS 3 Zrotation Xrotation Yrotation
		JOINT chest
		{
			OFFSET 0.000000 11.704300 -0.487680 
			CHANNELS 3 Zrotation Xrotation Yrotation
			JOINT neck
			{
				OFFSET 0.000000 22.189400 -2.194560 
				CHANNELS 3 Zrotation Xrotation Yrotation
				JOINT head
				{
					OFFSET -0.243840 7.071330 1.219200 
					CHANNELS 3 Zrotation Xrotation Yrotation
					End Site
					{
						OFFSET 1.000000 0.000000 0.000000 
					}
				}
			}
			JOINT rCollar
			{
				OFFSET -2.682240 19.263399 -4.876800 
				CHANNELS 3 Zrotation Xrotation Yrotation
				JOINT rShldr
				{
					OFFSET -8.778240 -1.950730 1.463040 
					CHANNELS 3 Zrotation Xrotation Yrotation
					JOINT rForeArm
					{
						OFFSET -28.174200 -1.711500 0.487680 
						CHANNELS 3 Zrotation Xrotation Yrotation
						JOINT rHand
						{
							OFFSET -22.587900 0.773209 7.071360 
							CHANNELS 3 Zrotation Xrotation Yrotation
							End Site
							{
								OFFSET -1.782710 -1.182140 1.430490 
							}
						}
					}
				}
			}
			JOINT lCollar
			{
				OFFSET 2.682240 19.263399 -4.876800 
				CHANNELS 3 Zrotation Xrotation Yrotation
				JOINT lShldr
				{
					OFFSET 8.778240 -1.950730 1.463040 
					CHANNELS 3 Zrotation Xrotation Yrotation
					JOINT lForeArm
					{
						OFFSET 28.174200 -1.711500 0.487680 
						CHANNELS 3 Zrotation Xrotation Yrotation
						JOINT lHand
						{
							OFFSET 22.587900 0.773209 7.071360 
							CHANNELS 3 Zrotation Xrotation Yrotation
							End Site
							{
								OFFSET 1.782710 -1.182140 1.430490 
							}
						}
					}
				}
			}
		}
	}
	JOINT rButtock
	{
		OFFSET -8.778240 4.350840 1.219200 
		CHANNELS 3 Zrotation Xrotation Yrotation
		JOINT rThigh
		{
			OFFSET 0.000000 -1.706870 -2.194560 
			CHANNELS 3 Zrotation Xrotation Yrotation
			JOINT rShin
			{
				OFFSET 0.000000 -36.819901 0.731520 
				CHANNELS 3 Zrotation Xrotation Yrotation
				JOINT rFoot
				{
					OFFSET 0.731520 -45.110401 -5.120640 
					CHANNELS 3 Zrotation Xrotation Yrotation
					End Site
					{
						OFFSET -1.122100 -3.699640 12.103000 
					}
				}
			}
		}
	}
	JOINT lButtock
	{
		OFFSET 8.778240 4.350840 1.219200 
		CHANNELS 3 Zrotation Xrotation Yrotation
		JOINT lThigh
		{
			OFFSET 0.000000 -1.706870 -2.194560 
			CHANNELS 3 Zrotation Xrotation Yrotation
			JOINT lShin
			{
				OFFSET 0.000000 -36.819901 0.731520 
				CHANNELS 3 Zrotation Xrotation Yrotation
				JOINT lFoot
				{
					OFFSET -0.731520 -45.110401 -5.120640 
					CHANNELS 3 Zrotation Xrotation Yrotation
					End Site
					{
						OFFSET 1.122100 -3.699640 12.103000 
					}
				}
			}
		}
	}
}
MOTION
Frames: 7
Frame Time: 0.008333
-11.827900 85.096603 -1.187370 0.000000 0.000000 0.000000 0.283892 -0.002914 0.008161 0.078459 -0.004733 0.013594 0.000000 0.000000 -0.000000 0.000000 0.000000 -0.000000 0.000000 0.000000 0.000000 0.000000 0.000000 0.000000 0.000000 -0.000000 0.000000 0.000000 0.000000 -0.000000 0.000000 0.000000 -0.000000 0.000000 0.000000 -0.000000 0.000000 0.000000 -0.000000 0.000000 -0.000000 -0.000000 -0.000000 0.000000 -0.000000 0.668937 -3.858530 -0.057249 -0.003418 1.437930 -0.027441 -0.455280 2.421050 0.100333 0.000000 0.000000 0.000000 -0.234801 -2.724200 0.029938 0.006626 -0.616659 0.057971 0.449414 3.341270 -0.117938 
-6.520550 83.607101 -6.406090 -4.095500 82.138603 2.605900 0.800481 -0.346885 0.546421 0.494759 -0.744559 0.184820 0.608063 -1.198500 0.297551 0.267393 9.220420 1.152270 -0.000000 -0.000000 0.000000 20.391600 5.775040 -1.830380 -4.626530 -2.189840 7.128660 0.000130 0.257521 0.036191 -0.000000 -0.000000 0.000000 -20.604000 2.254340 0.329519 7.983330 -4.910540 -10.765900 -0.254599 -11.242600 1.472730 -0.000000 0.000000 -0.000000 2.195800 -5.985090 5.799790 0.019718 5.207730 0.087592 -1.401620 -0.795514 -11.564500 0.000000 0.000000 0.000000 1.070090 -7.324540 -6.032120 0.001863 5.337280 -0.054998 0.841360 0.811411 5.080130 
-6.635620 83.586197 -6.322400 -4.037200 82.259300 2.851400 1.348520 -0.716776 1.110510 0.943658 -1.530100 0.364672 1.267670 -2.477580 0.610383 0.115532 18.917900 2.463680 -0.000000 -0.000000 0.000000 42.355801 11.872800 -3.832400 -8.922240 -4.386020 14.686500 -0.000093 0.535624 0.075277 -0.000000 -0.000000 0.000000 -42.408298 4.526680 0.688035 14.461400 -9.541830 -22.414101 0.155358 -23.156601 3.238560 -0.000000 0.000000 -0.000000 4.276530 -8.110250 12.056000 0.027487 9.190360 0.211026 -3.786620 -3.864920 -23.952101 0.000000 0.000000 0.000000 1.371000 -11.975900 -12.600600 0.022741 11.630000 -0.177627 1.752010 -1.829740 10.572100 
-6.735890 83.572197 -6.208580 -4.019100 82.390602 2.990100 1.853050 -1.034460 1.623180 1.340630 -2.224130 0.527621 1.861590 -3.595120 0.894218 -0.431104 27.613501 3.851390 -0.000000 -0.000000 0.000000 62.324100 17.252701 -5.721490 -12.279100 -6.163610 21.500700 -0.000587 0.772562 0.108582 -0.000000 -0.000000 0.000000 -61.890099 6.762120 0.994713 18.629601 -12.649300 -33.078999 1.263660 -33.629398 5.206600 -0.000000 0.000000 -0.000000 6.544530 -9.851390 17.687700 0.019605 12.747100 0.324555 -6.992710 -5.964560 -35.108398 0.000000 0.000000 0.000000 0.717201 -15.808900 -18.741699 0.065220 17.245001 -0.293405 2.988230 -4.084800 15.514700 
-6.816660 83.565002 -6.087670 -3.649600 82.503197 3.395200 2.234790 -1.221980 2.007040 1.598480 -2.689470 0.647982 2.264670 -4.309200 1.104020 -1.088490 33.846901 5.077040 -0.000000 -0.000000 0.000000 76.467201 20.907700 -7.105640 -14.393000 -7.275930 26.348200 -0.001008 0.906590 0.127424 -0.000000 -0.000000 0.000000 -75.512802 8.906180 1.166970 20.746901 -13.981100 -40.525501 2.561030 -40.594299 6.917140 -0.000000 0.000000 -0.000000 8.378100 -10.972400 21.615601 0.005532 15.239400 0.406987 -9.730510 -6.921020 -42.938301 0.000000 0.000000 0.000000 -0.241129 -18.245501 -23.295300 0.109396 21.165600 -0.379594 4.080200 -5.551230 19.026501 
-6.902790 83.563004 -5.953520 -4.080800 82.621803 2.951600 2.446110 -1.235500 2.216800 1.656690 -2.830540 0.710218 2.374580 -4.456360 1.206040 -1.375400 36.713501 5.772540 -0.000000 -0.000000 0.000000 82.054298 22.174900 -7.618110 -15.225100 -7.719960 28.382601 -0.001041 0.899286 0.126397 -0.000000 -0.000000 0.000000 -80.907600 10.947900 1.131270 21.381599 -14.215400 -43.276001 3.130460 -42.808300 7.576620 -0.000000 0.000000 -0.000000 9.230140 -11.436600 23.089300 -0.001876 16.240499 0.441455 -10.909500 -7.177910 -46.004799 0.000000 0.000000 0.000000 -0.707886 -19.171801 -25.355400 0.130445 22.720800 -0.414753 4.563470 -6.051240 20.516899 
-7.023860 83.559799 -5.809670 -5.340900 82.772301 1.700500 2.533790 -1.124450 2.301860 1.571300 -2.740210 0.730785 2.272940 -4.198750 1.230940 -1.232340 37.186600 5.971070 -0.000000 -0.000000 0.000000 81.434502 21.752501 -7.461500 -15.245300 -7.765510 28.391800 -0.000798 0.790902 0.111161 -0.000000 -0.000000 0.000000 -80.408401 12.915600 0.945028 21.182600 -14.010100 -42.636101 2.899350 -41.651600 7.260870 -0.000000 0.000000 -0.000000 9.294520 -11.491100 22.791599 -0.000737 16.176500 0.440323 -10.809200 -7.188460 -45.655701 0.000000 0.000000 0.000000 -0.604397 -19.157101 -25.552401 0.128485 22.586100 -0.410327 4.518190 -5.902440 20.547501 
